HIERARCHY
ROOT Root
{
  OFFSET 0.0 0.0 0.0
  CHANNELS 6 Xposition Yposition Zposition Zrotation Yrotation Xrotation
  JOINT Hips
  {
    OFFSET 0.0 100.0 0.0
    CHANNELS 6 Xposition Yposition Zposition Zrotation Yrotation Xrotation
    JOINT Spine1
    {
      OFFSET -0.013727 5.003763 -0.053727
      CHANNELS 3 Zrotation Yrotation Xrotation
      JOINT Spine2
      {
        OFFSET -0.0 7.125301 -0.029825
        CHANNELS 3 Zrotation Yrotation Xrotation
        JOINT Chest
        {
          OFFSET -1e-06 7.550063 -0.815971
          CHANNELS 3 Zrotation Yrotation Xrotation
          JOINT Neck1
          {
            OFFSET -0.181677 26.311295 -0.553348
            CHANNELS 3 Zrotation Yrotation Xrotation
            JOINT Neck2
            {
              OFFSET -3e-06 7.709397 2.302585
              CHANNELS 3 Zrotation Yrotation Xrotation
              JOINT Head
              {
                OFFSET -5e-06 6.128916 1.953709
                CHANNELS 3 Zrotation Yrotation Xrotation
                JOINT HeadEnd
                {
                  OFFSET 0.003598 16.065403 -1.835379
                  CHANNELS 3 Zrotation Yrotation Xrotation
                }
                JOINT Jaw
                {
                  OFFSET 0.002637 0.475592 3.094941
                  CHANNELS 3 Zrotation Yrotation Xrotation
                }
                JOINT LeftEye
                {
                  OFFSET 3.206381 5.380205 7.586883
                  CHANNELS 3 Zrotation Yrotation Xrotation
                }
                JOINT RightEye
                {
                  OFFSET -3.22244 5.361869 7.558234
                  CHANNELS 3 Zrotation Yrotation Xrotation
                }
              }
            }
          }
          JOINT LeftShoulder
          {
            OFFSET 1.621652 23.237164 5.113413
            CHANNELS 3 Zrotation Yrotation Xrotation
            JOINT LeftArm
            {
              OFFSET 14.919846 2e-06 -5.502326
              CHANNELS 3 Zrotation Yrotation Xrotation
              JOINT LeftForeArm
              {
                OFFSET 28.739307 0.0 -0.002588
                CHANNELS 3 Zrotation Yrotation Xrotation
                JOINT LeftHand
                {
                  OFFSET 27.093981 -1e-06 0.002609
                  CHANNELS 3 Zrotation Yrotation Xrotation
                  JOINT LeftHandThumb1
                  {
                    OFFSET 2.276482 -1.392045 3.191413
                    CHANNELS 3 Zrotation Yrotation Xrotation
                    JOINT LeftHandThumb2
                    {
                      OFFSET 4.012836 -1.828127 1.641654
                      CHANNELS 3 Zrotation Yrotation Xrotation
                      JOINT LeftHandThumb3
                      {
                        OFFSET 2.798515 0.0 -3e-06
                        CHANNELS 3 Zrotation Yrotation Xrotation
                        JOINT LeftHandThumbEnd
                        {
                          OFFSET 3.180793 -4e-06 4e-06
                          CHANNELS 3 Zrotation Yrotation Xrotation
                        }
                      }
                    }
                  }
                  JOINT LeftHandIndex1
                  {
                    OFFSET 3.247555 -0.531998 2.296169
                    CHANNELS 3 Zrotation Yrotation Xrotation
                    JOINT LeftHandIndex2
                    {
                      OFFSET 6.364578 0.01206 0.1786
                      CHANNELS 3 Zrotation Yrotation Xrotation
                      JOINT LeftHandIndex3
                      {
                        OFFSET 3.662364 0.0 0.0
                        CHANNELS 3 Zrotation Yrotation Xrotation
                        JOINT LeftHandIndex4
                        {
                          OFFSET 2.329242 4e-06 4e-06
                          CHANNELS 3 Zrotation Yrotation Xrotation
                          JOINT LeftHandIndexEnd
                          {
                            OFFSET 2.759615 -0.180537 -0.113024
                            CHANNELS 3 Zrotation Yrotation Xrotation
                          }
                        }
                      }
                    }
                  }
                  JOINT LeftHandMiddle1
                  {
                    OFFSET 3.163495 0.240981 1.000332
                    CHANNELS 3 Zrotation Yrotation Xrotation
                    JOINT LeftHandMiddle2
                    {
                      OFFSET 6.19078 -0.259278 -1.002548
                      CHANNELS 3 Zrotation Yrotation Xrotation
                      JOINT LeftHandMiddle3
                      {
                        OFFSET 4.35652 -4e-06 -1e-06
                        CHANNELS 3 Zrotation Yrotation Xrotation
                        JOINT LeftHandMiddle4
                        {
                          OFFSET 2.996877 -8e-06 0.0
                          CHANNELS 3 Zrotation Yrotation Xrotation
                          JOINT LeftHandMiddleEnd
                          {
                            OFFSET 2.304287 -0.294569 -0.031741
                            CHANNELS 3 Zrotation Yrotation Xrotation
                          }
                        }
                      }
                    }
                  }
                  JOINT LeftHandRing1
                  {
                    OFFSET 2.882643 -0.053652 -0.322543
                    CHANNELS 3 Zrotation Yrotation Xrotation
                    JOINT LeftHandRing2
                    {
                      OFFSET 5.854541 -0.486202 -1.373841
                      CHANNELS 3 Zrotation Yrotation Xrotation
                      JOINT LeftHandRing3
                      {
                        OFFSET 4.350578 0.0 3e-06
                        CHANNELS 3 Zrotation Yrotation Xrotation
                        JOINT LeftHandRing4
                        {
                          OFFSET 2.651321 7e-06 2e-06
                          CHANNELS 3 Zrotation Yrotation Xrotation
                          JOINT LeftHandRingEnd
                          {
                            OFFSET 1.936105 0.077687 -7.1e-05
                            CHANNELS 3 Zrotation Yrotation Xrotation
                          }
                        }
                      }
                    }
                  }
                  JOINT LeftHandPinky1
                  {
                    OFFSET 2.8655 -0.310005 -1.600378
                    CHANNELS 3 Zrotation Yrotation Xrotation
                    JOINT LeftHandPinky2
                    {
                      OFFSET 5.087849 -1.331141 -1.77123
                      CHANNELS 3 Zrotation Yrotation Xrotation
                      JOINT LeftHandPinky3
                      {
                        OFFSET 3.070974 4e-06 0.0
                        CHANNELS 3 Zrotation Yrotation Xrotation
                        JOINT LeftHandPinky4
                        {
                          OFFSET 1.549672 0.0 1e-06
                          CHANNELS 3 Zrotation Yrotation Xrotation
                          JOINT LeftHandPinkyEnd
                          {
                            OFFSET 1.944893 -0.157802 0.057219
                            CHANNELS 3 Zrotation Yrotation Xrotation
                          }
                        }
                      }
                    }
                  }
                }
              }
            }
          }
          JOINT RightShoulder
          {
            OFFSET -1.380118 23.180309 5.214158
            CHANNELS 3 Zrotation Yrotation Xrotation
            JOINT RightArm
            {
              OFFSET -15.037196 1.2e-05 -5.545604
              CHANNELS 3 Zrotation Yrotation Xrotation
              JOINT RightForeArm
              {
                OFFSET -28.736639 2e-06 -0.002597
                CHANNELS 3 Zrotation Yrotation Xrotation
                JOINT RightHand
                {
                  OFFSET -27.133619 -0.0 0.002613
                  CHANNELS 3 Zrotation Yrotation Xrotation
                  JOINT RightHandThumb1
                  {
                    OFFSET -2.274032 -1.383988 3.163127
                    CHANNELS 3 Zrotation Yrotation Xrotation
                    JOINT RightHandThumb2
                    {
                      OFFSET -4.011429 -1.827466 1.640914
                      CHANNELS 3 Zrotation Yrotation Xrotation
                      JOINT RightHandThumb3
                      {
                        OFFSET -2.794935 -4e-06 -3e-06
                        CHANNELS 3 Zrotation Yrotation Xrotation
                        JOINT RightHandThumbEnd
                        {
                          OFFSET -3.183852 4e-06 1e-06
                          CHANNELS 3 Zrotation Yrotation Xrotation
                        }
                      }
                    }
                  }
                  JOINT RightHandIndex1
                  {
                    OFFSET -3.253266 -0.520057 2.282866
                    CHANNELS 3 Zrotation Yrotation Xrotation
                    JOINT RightHandIndex2
                    {
                      OFFSET -6.341917 0.012471 0.178266
                      CHANNELS 3 Zrotation Yrotation Xrotation
                      JOINT RightHandIndex3
                      {
                        OFFSET -3.654871 -8e-06 -0.0
                        CHANNELS 3 Zrotation Yrotation Xrotation
                        JOINT RightHandIndex4
                        {
                          OFFSET -2.327586 0.0 1e-06
                          CHANNELS 3 Zrotation Yrotation Xrotation
                          JOINT RightHandIndexEnd
                          {
                            OFFSET -2.76179 -0.180656 -0.113078
                            CHANNELS 3 Zrotation Yrotation Xrotation
                          }
                        }
                      }
                    }
                  }
                  JOINT RightHandMiddle1
                  {
                    OFFSET -3.168106 0.246593 1.00103
                    CHANNELS 3 Zrotation Yrotation Xrotation
                    JOINT RightHandMiddle2
                    {
                      OFFSET -6.180828 -0.258836 -1.000895
                      CHANNELS 3 Zrotation Yrotation Xrotation
                      JOINT RightHandMiddle3
                      {
                        OFFSET -4.348901 0.0 -0.0
                        CHANNELS 3 Zrotation Yrotation Xrotation
                        JOINT RightHandMiddle4
                        {
                          OFFSET -3.00024 -4e-06 -2e-06
                          CHANNELS 3 Zrotation Yrotation Xrotation
                          JOINT RightHandMiddleEnd
                          {
                            OFFSET -2.30252 -0.29437 -0.031706
                            CHANNELS 3 Zrotation Yrotation Xrotation
                          }
                        }
                      }
                    }
                  }
                  JOINT RightHandRing1
                  {
                    OFFSET -2.88569 -0.067952 -0.308858
                    CHANNELS 3 Zrotation Yrotation Xrotation
                    JOINT RightHandRing2
                    {
                      OFFSET -5.854198 -0.48613 -1.373731
                      CHANNELS 3 Zrotation Yrotation Xrotation
                      JOINT RightHandRing3
                      {
                        OFFSET -4.33881 -4e-06 -0.0
                        CHANNELS 3 Zrotation Yrotation Xrotation
                        JOINT RightHandRing4
                        {
                          OFFSET -2.654903 -4e-06 4e-06
                          CHANNELS 3 Zrotation Yrotation Xrotation
                          JOINT RightHandRingEnd
                          {
                            OFFSET -1.933568 0.077527 -5.2e-05
                            CHANNELS 3 Zrotation Yrotation Xrotation
                          }
                        }
                      }
                    }
                  }
                  JOINT RightHandPinky1
                  {
                    OFFSET -2.866425 -0.342796 -1.584145
                    CHANNELS 3 Zrotation Yrotation Xrotation
                    JOINT RightHandPinky2
                    {
                      OFFSET -5.091371 -1.332055 -1.772385
                      CHANNELS 3 Zrotation Yrotation Xrotation
                      JOINT RightHandPinky3
                      {
                        OFFSET -3.062664 -4e-06 1e-06
                        CHANNELS 3 Zrotation Yrotation Xrotation
                        JOINT RightHandPinky4
                        {
                          OFFSET -1.546529 4e-06 -2e-06
                          CHANNELS 3 Zrotation Yrotation Xrotation
                          JOINT RightHandPinkyEnd
                          {
                            OFFSET -1.945119 -0.157718 0.057211
                            CHANNELS 3 Zrotation Yrotation Xrotation
                          }
                        }
                      }
                    }
                  }
                }
              }
            }
          }
        }
      }
    }
    JOINT LeftLeg
    {
      OFFSET 10.043214 -8.434526 2.595655
      CHANNELS 3 Zrotation Yrotation Xrotation
      JOINT LeftShin
      {
        OFFSET -1e-06 -43.221752 -0.802913
        CHANNELS 3 Zrotation Yrotation Xrotation
        JOINT LeftFoot
        {
          OFFSET 1e-06 -42.155094 -3.481523
          CHANNELS 3 Zrotation Yrotation Xrotation
          JOINT LeftToeBase
          {
            OFFSET 0.0 -5.059472 13.231529
            CHANNELS 3 Zrotation Yrotation Xrotation
            JOINT LeftToeEnd
            {
              OFFSET -0.009607 -1.647619 6.513017
              CHANNELS 3 Zrotation Yrotation Xrotation
            }
          }
        }
      }
    }
    JOINT RightLeg
    {
      OFFSET -10.047278 -8.29526 2.620317
      CHANNELS 3 Zrotation Yrotation Xrotation
      JOINT RightShin
      {
        OFFSET 1e-06 -43.362206 -0.805556
        CHANNELS 3 Zrotation Yrotation Xrotation
        JOINT RightFoot
        {
          OFFSET 2e-06 -42.117393 -3.478398
          CHANNELS 3 Zrotation Yrotation Xrotation
          JOINT RightToeBase
          {
            OFFSET -0.0 -5.079609 13.284196
            CHANNELS 3 Zrotation Yrotation Xrotation
            JOINT RightToeEnd
            {
              OFFSET 0.009532 -1.634378 6.460591
              CHANNELS 3 Zrotation Yrotation Xrotation
            }
          }
        }
      }
    }
  }
}
MOTION
Frames: 4
Frame Time: 0.03333333333333333
0.0 0.0 0.0 0.0 -0.0 0.0 5.104718 99.675491 4.190753 1.345851 -1.660344 -1.803485 -0.456242 0.497472 0.076959 -0.144715 0.665921 -5.315145 -1.46962 -0.236804 24.051975 2.062876 0.348432 38.237751 -0.952333 -0.211594 -3.781711 0.885717 -1.487051 -12.444799 7.7e-05 -2.3e-05 7e-06 -0.054387 0.122917 0.014928 0.545803 -3.622054 -10.385203 -0.655445 3.866162 -10.414714 -28.039557 -13.946179 22.802149 -38.557934 -24.051874 25.825378 0.023983 -28.343592 0.098484 -1.924147 1.814212 -6.468882 -5.882106 9.861284 0.70259 -10.936872 -0.360574 7.156205 1e-06 8.774826 -1e-06 -16.179985 18.196732 6.09729 -1.844032 2.498505 -2.507277 -10.1636 4.678946 4.621109 -20.976023 -3e-06 1e-06 -21.226286 2.451697 -3.594002 1e-06 -7e-06 1e-06 -1.362682 2.240798 -0.746323 -21.334913 0.58491 3.008323 -13.821215 -3e-06 2e-06 -23.887171 -0.249079 -0.839484 -60.017052 2.486016 -1.78875 -0.294024 1.679687 0.833257 -14.218208 0.093215 1.300581 -34.212051 -0.287563 0.967169 -20.033213 0.964537 1.212843 0.0 -0.0 0.0 -3.440389 0.788232 0.501658 -15.928185 -3.167308 2.999706 -6.338825 -1e-06 1e-06 -18.123446 3.648182 -4.905672 -3e-06 0.0 -2e-06 12.257513 17.100124 23.311115 56.765602 21.777508 19.18317 -0.364672 34.759583 0.0371 -1.18413 1.838562 -2.114258 2.243542 -5.255037 -3.180158 14.282889 -0.826596 6.952503 -2e-06 -12.690605 0.0 16.266211 -17.908907 2.70097 1.665666 -1.955921 -2.878299 4.727798 -4.170588 4.993925 11.020524 3e-06 -1e-06 12.109051 -3.735716 -2.866781 0.0 -0.0 0.0 1.291986 -1.928549 -1.498088 14.800129 0.567468 3.865609 14.242571 -1.341735 -6.660656 19.631968 0.143925 -0.648242 50.35202 -0.907886 -6.31817 0.353029 -1.511151 -0.031939 20.222794 3.684312 2.316632 18.787271 5e-06 3e-06 10.751625 -0.479869 1.397908 1e-06 -0.0 0.0 3.273807 0.305947 -0.580111 21.486813 11.830374 2.266132 8.162926 1e-06 0.0 18.399078 -3.798985 -4.940573 4e-06 0.0 -3e-06 -2.019892 3.61243 -6.95889 -0.008517 0.062623 13.896288 -0.720243 3.300369 -5.366343 1.6511 -1.744198 0.259401 0.0 -0.0 2e-06 -7.688876 -15.870741 -5.57068 0.047931 0.10034 14.534955 6.596798 4.772343 -5.399368 -1.437328 1.085194 -0.995009 0.0 0.0 -1e-06 
0.0 0.0 0.0 0.0 -0.0 0.0 5.116575 99.650742 4.083974 1.391666 -1.759745 -1.746164 -0.542593 0.52682 0.162584 -0.179365 0.730471 -5.28356 -1.719079 -0.131566 24.057503 1.938235 0.512881 38.259613 -0.93774 -0.179419 -3.786276 1.138377 -1.513528 -12.446669 7.7e-05 -2.3e-05 7e-06 -0.059713 0.128697 0.011572 0.540721 -3.618506 -10.401078 -0.661431 3.874036 -10.426912 -28.092003 -14.05494 22.760752 -38.046734 -23.939297 25.270233 -0.050768 -28.40365 0.142787 -1.925152 1.880009 -6.278356 -5.882108 9.861287 0.70259 -10.936873 -0.360575 7.156202 -0.0 8.774826 -1e-06 -16.194141 18.210909 6.115146 -1.844033 2.498505 -2.507277 -10.163602 4.678946 4.621107 -20.976027 -3e-06 -0.0 -21.226295 2.451697 -3.594003 1e-06 -7e-06 -1e-06 -1.362682 2.240797 -0.746324 -21.334917 0.584909 3.00832 -13.821215 -3e-06 1e-06 -23.887175 -0.24908 -0.839485 -60.063633 2.493618 -1.766059 -0.294025 1.679688 0.833256 -14.218212 0.093215 1.300579 -34.212051 -0.287565 0.967165 -20.033216 0.964533 1.212842 1e-06 -1e-06 -1e-06 -3.440389 0.788234 0.501657 -15.928189 -3.167308 2.999705 -6.338827 -1e-06 -1e-06 -18.123453 3.648182 -4.905674 -3e-06 0.0 -1e-06 12.068012 17.15974 23.361118 57.425869 22.161583 19.24176 -0.280251 34.674343 0.056208 -1.17851 1.849714 -2.21519 2.243544 -5.255039 -3.18016 14.282896 -0.826597 6.952501 -1e-06 -12.690612 1e-06 16.24938 -17.884537 2.706487 1.665667 -1.955923 -2.878299 4.7278 -4.170589 4.993926 11.020531 3e-06 -1e-06 12.109058 -3.735717 -2.866787 -0.0 -0.0 -1e-06 1.291987 -1.928551 -1.498092 14.800136 0.567468 3.865606 14.24258 -1.341737 -6.660661 19.631975 0.143928 -0.648249 50.308578 -0.8912 -6.331556 0.35303 -1.511152 -0.031942 20.222801 3.684309 2.316625 18.787283 5e-06 -4e-06 10.751633 -0.479867 1.397904 2e-06 -0.0 -1e-06 3.273809 0.305947 -0.580111 21.48682 11.830379 2.26613 8.16293 1e-06 -3e-06 18.399092 -3.798986 -4.940581 3e-06 -2e-06 -2e-06 -2.092896 3.530876 -7.16144 -0.007057 0.055615 14.081024 -0.760134 3.500839 -5.414907 1.648138 -1.752988 0.270992 0.0 -0.0 2e-06 -7.694028 -15.827304 -5.888958 0.052839 0.126206 14.87343 6.515776 4.774312 -5.501181 -1.439043 1.098712 -0.954891 0.0 -0.0 -1e-06 
0.0 0.0 0.0 0.0 -0.0 0.0 5.112576 99.629143 3.96619 1.443014 -1.85717 -1.665759 -0.603247 0.551468 0.245137 -0.202047 0.797681 -5.246807 -1.984598 -0.026591 24.074821 1.785107 0.775216 38.250076 -0.90515 -0.194832 -3.794513 1.380258 -1.531389 -12.496202 7.7e-05 -2.3e-05 8e-06 -0.06291 0.131296 0.006633 0.536359 -3.616854 -10.415413 -0.663731 3.877592 -10.437054 -28.193195 -14.192372 22.678829 -37.612984 -23.829014 24.670221 -0.120119 -28.437614 0.183074 -1.917407 1.889355 -6.307023 -5.882106 9.861284 0.702591 -10.936872 -0.360574 7.156204 0.0 8.774824 0.0 -16.214375 18.226704 6.107841 -1.844032 2.498505 -2.50728 -10.163601 4.678945 4.621109 -20.976023 -3e-06 1e-06 -21.226288 2.451698 -3.594001 0.0 -6e-06 -1e-06 -1.362682 2.240799 -0.746324 -21.334917 0.584909 3.008321 -13.821213 -3e-06 1e-06 -23.887173 -0.24908 -0.839483 -60.094219 2.488701 -1.757473 -0.294025 1.679688 0.833255 -14.218209 0.093216 1.300581 -34.212059 -0.287563 0.967169 -20.033218 0.964535 1.212843 1e-06 -1e-06 -0.0 -3.440389 0.788234 0.501658 -15.928185 -3.167308 2.999707 -6.338826 0.0 2e-06 -18.123449 3.648182 -4.905671 -3e-06 -0.0 -1e-06 11.819502 17.25493 23.427788 57.982296 22.536077 19.440811 -0.156483 34.604858 0.09794 -1.049356 1.821763 -2.168716 2.243544 -5.255039 -3.180159 14.282896 -0.826597 6.952503 -1e-06 -12.690607 1e-06 16.22274 -17.861248 2.722893 1.665667 -1.955922 -2.878298 4.727801 -4.170588 4.993922 11.020533 2e-06 -2e-06 12.109058 -3.735717 -2.866785 -1e-06 -0.0 0.0 1.291986 -1.92855 -1.498088 14.800134 0.567468 3.865606 14.242579 -1.341739 -6.660658 19.631973 0.143922 -0.648248 50.269333 -0.881295 -6.330865 0.353029 -1.51115 -0.031941 20.222801 3.684309 2.316629 18.787283 4e-06 -4e-06 10.751633 -0.479869 1.397905 1e-06 -1e-06 -0.0 3.273808 0.305947 -0.58011 21.48682 11.830376 2.266132 8.16293 2e-06 -2e-06 18.399092 -3.798984 -4.94058 3e-06 -0.0 -3e-06 -2.165929 3.42497 -7.394574 -0.003583 0.056998 14.24088 -0.785915 3.702751 -5.430779 1.645864 -1.76196 0.279659 0.0 -0.0 2e-06 -7.678975 -15.757059 -6.248366 0.055296 0.136173 15.211212 6.416695 4.771178 -5.5963 -1.439201 1.102979 -0.919168 0.0 0.0 -1e-06 
0.0 0.0 0.0 0.0 -0.0 0.0 5.087399 99.604591 3.846951 1.518025 -1.939649 -1.591775 -0.659238 0.578646 0.331456 -0.216775 0.854014 -5.208947 -2.258224 0.079969 24.104979 1.635399 1.05582 38.238491 -0.883608 -0.233141 -3.795881 1.59815 -1.527483 -12.613654 7.7e-05 -2.2e-05 9e-06 -0.06411 0.130268 0.001881 0.53419 -3.618334 -10.426218 -0.664161 3.877186 -10.445394 -28.327875 -14.354348 22.576952 -37.261356 -23.741793 24.184969 -0.149073 -28.450476 0.211789 -1.913605 1.868442 -6.511078 -5.882109 9.861291 0.702591 -10.936875 -0.360574 7.156205 -0.0 8.77483 1e-06 -16.221067 18.238806 6.099022 -1.844034 2.498507 -2.507277 -10.163604 4.678949 4.621112 -20.976034 -3e-06 -0.0 -21.226297 2.451699 -3.594005 1e-06 -7e-06 -0.0 -1.362683 2.2408 -0.746322 -21.334921 0.58491 3.00832 -13.821218 -3e-06 -1e-06 -23.88718 -0.249078 -0.839487 -60.103725 2.482047 -1.752705 -0.294025 1.679689 0.833255 -14.218213 0.093216 1.300579 -34.212063 -0.287565 0.967165 -20.03322 0.964535 1.21284 1e-06 -1e-06 -0.0 -3.440389 0.788234 0.501655 -15.928191 -3.167311 2.999706 -6.338829 -2e-06 -1e-06 -18.123453 3.648185 -4.905674 -3e-06 0.0 -2e-06 11.520032 17.367191 23.4909 58.427841 22.840981 19.776758 -0.03875 34.612976 0.145531 -0.817212 1.750623 -2.047374 2.243541 -5.255039 -3.180158 14.282896 -0.826593 6.952504 -3e-06 -12.690609 -1e-06 16.191628 -17.837706 2.737594 1.665666 -1.955922 -2.878298 4.727799 -4.170588 4.993922 11.020528 3e-06 -1e-06 12.109056 -3.735718 -2.866785 -0.0 0.0 0.0 1.291986 -1.928551 -1.498089 14.800132 0.56747 3.865607 14.242576 -1.341738 -6.660659 19.631973 0.143927 -0.648245 50.22644 -0.866296 -6.330163 0.353029 -1.511152 -0.03194 20.222797 3.684314 2.316629 18.787279 9e-06 -1e-06 10.751629 -0.479866 1.397905 2e-06 -0.0 -0.0 3.273808 0.305947 -0.580111 21.48682 11.830381 2.266133 8.162928 2e-06 -1e-06 18.399084 -3.798984 -4.940576 3e-06 -0.0 -1e-06 -2.254787 3.280384 -7.626399 1.1e-05 0.067616 14.387189 -0.808333 3.921925 -5.428346 1.644726 -1.774445 0.292008 0.0 -0.0 2e-06 -7.679966 -15.692447 -6.634785 0.058499 0.135872 15.605816 6.324183 4.789515 -5.715495 -1.43928 1.101073 -0.87546 -0.0 0.0 -1e-06 
